# xmcd
#
# Track frame offsets:
#	150
#	26614
#	53265
#	104930
#	138978
#	162771
#
# Disc length: 2702 seconds
#
# Revision: 1
# Processed by: cddbd v1.5.2PL0 Copyright (c) Steve Scherf et al.
# Submitted via: audiograbber 1.83.01
#
DISCID=470a8c06
DTITLE=Gänsehaut - 13) Die Geistermaske
DYEAR=1999
DGENRE=Hörspiel
TTITLE0=Ausgehöhlter Kürbiskopf
TTITLE1=Ein übler Scherz
TTITLE2=Vor Angst erstarrt
TTITLE3=Dämon in der Finsternis
TTITLE4=Von allen guten Geistern verlassen
TTITLE5=Panische Angst
EXTD=
EXTT0=
EXTT1=
EXTT2=
EXTT3=
EXTT4=
EXTT5=
PLAYORDER=
